<svg width="238" height="78" viewBox="0 0 238 78" fill="none" xmlns="http://www.w3.org/2000/svg">
<path d="M198.349 23.4418C198.794 23.4436 199.229 23.5767 199.598 23.8245C199.968 24.0722 200.257 24.4236 200.428 24.8346C200.599 25.2457 200.645 25.698 200.56 26.135C200.475 26.5721 200.263 26.9743 199.951 27.2914C199.526 27.7155 198.95 27.9535 198.349 27.953C197.749 27.9524 197.174 27.7134 196.749 27.2885C196.325 26.8636 196.087 26.2877 196.088 25.6873C196.088 25.0869 196.327 24.5114 196.752 24.0873C196.96 23.8762 197.209 23.71 197.484 23.5989C197.758 23.4879 198.053 23.4344 198.349 23.4418Z" fill="#4A2564"/>
<path d="M199.664 31.3197C199.498 31.1515 199.301 31.0178 199.083 30.9263C198.866 30.8348 198.632 30.7873 198.396 30.7866H198.344C198.267 30.7891 198.19 30.7958 198.114 30.8068C198.076 30.8068 198.039 30.8068 198.001 30.8068H197.935C197.523 30.8975 197.154 31.1276 196.892 31.4583C196.629 31.789 196.489 32.2 196.494 32.6221V47.1358H200.211V32.6394C200.215 32.3936 200.169 32.1496 200.075 31.9226C199.981 31.6956 199.841 31.4904 199.664 31.3197Z" fill="#4A2564"/>
<path d="M169.256 33.6506C168.942 32.9845 168.48 32.3991 167.905 31.9391C167.247 31.4182 166.502 31.02 165.703 30.7634C164.733 30.4545 163.719 30.3056 162.701 30.3226C161.492 30.3098 160.291 30.5259 159.162 30.9594C158.117 31.3637 157.163 31.9741 156.359 32.7545C155.554 33.5398 154.921 34.4837 154.5 35.5264C154.043 36.6604 153.816 37.8739 153.832 39.0965C153.808 40.3426 154.04 41.5803 154.515 42.7328C154.943 43.7475 155.582 44.6591 156.39 45.4068C157.191 46.141 158.135 46.7021 159.162 47.055C160.259 47.4318 161.412 47.6198 162.571 47.6111C163.374 47.6161 164.177 47.5506 164.968 47.4151C165.619 47.3027 166.262 47.1496 166.893 46.957C167.164 46.8734 167.412 46.7841 167.639 46.6948C167.82 46.6188 167.985 46.5082 168.124 46.3692C168.266 46.2306 168.378 46.0641 168.453 45.8802C168.528 45.6962 168.564 45.4987 168.559 45.3002C168.559 45.1256 168.53 44.9522 168.472 44.7873C168.425 44.6545 168.359 44.5292 168.276 44.4156C168.229 44.3509 168.178 44.2893 168.124 44.2312C167.985 44.0892 167.818 43.9771 167.634 43.9018C167.45 43.8265 167.253 43.7895 167.055 43.7932C166.857 43.7925 166.662 43.8297 166.478 43.9027C166.366 43.9459 166.259 43.9863 166.138 44.0266C165.718 44.168 165.287 44.2778 164.85 44.3551C164.334 44.4448 163.81 44.4882 163.286 44.4847C161.613 44.4847 160.325 44.1419 159.422 43.4561C158.987 43.1384 158.62 42.7368 158.343 42.2751C158.066 41.8134 157.884 41.3008 157.808 40.7677C158.24 40.7879 158.649 40.8052 159.03 40.8167C159.41 40.8282 159.816 40.8167 160.252 40.8167C161.805 40.8444 163.356 40.719 164.885 40.4421C165.905 40.2647 166.887 39.9118 167.786 39.399C168.434 39.0266 168.957 38.47 169.288 37.7999C169.577 37.148 169.721 36.4412 169.711 35.7281C169.715 35.0105 169.559 34.301 169.256 33.6506ZM165.899 36.6185C165.723 36.9704 165.438 37.2563 165.087 37.4339C164.544 37.7145 163.96 37.909 163.358 38.0102C162.399 38.1807 161.427 38.257 160.453 38.2378H159.085C158.626 38.2378 158.148 38.2378 157.644 38.2061C157.666 37.5703 157.793 36.9424 158.018 36.3476C158.24 35.7603 158.567 35.2183 158.984 34.7484C159.41 34.2706 159.933 33.8877 160.517 33.6247C161.184 33.33 161.908 33.1854 162.637 33.2011C163.495 33.1708 164.344 33.3836 165.087 33.8149C165.406 34.005 165.667 34.2786 165.842 34.606C166.017 34.9335 166.1 35.3025 166.081 35.6734C166.085 35.9975 166.023 36.3191 165.899 36.6185Z" fill="#4A2564"/>
<path d="M190.846 23.6637C190.59 23.4049 190.263 23.228 189.906 23.1552C189.549 23.0825 189.178 23.1173 188.841 23.2552C188.504 23.3931 188.215 23.6278 188.012 23.9298C187.808 24.2318 187.698 24.5875 187.697 24.9517V32.8353C187.085 32.0861 186.317 31.4794 185.446 31.0574C184.412 30.5498 183.271 30.2978 182.118 30.3227C180.983 30.3114 179.858 30.5279 178.808 30.9595C177.815 31.3727 176.916 31.9835 176.165 32.7546C175.406 33.5446 174.808 34.4754 174.405 35.4948C173.974 36.596 173.759 37.7699 173.771 38.9525C173.76 40.1382 173.987 41.314 174.44 42.4102C174.86 43.4396 175.486 44.3722 176.281 45.1504C177.085 45.9236 178.032 46.5324 179.07 46.9427C180.196 47.3874 181.398 47.6096 182.608 47.5967C183.796 47.613 184.978 47.4179 186.098 47.0205C187.14 46.6439 188.087 46.0418 188.87 45.257C189.687 44.422 190.315 43.4219 190.714 42.3237C191.184 40.9941 191.411 39.5904 191.382 38.1803V24.9719C191.387 24.7288 191.342 24.4872 191.25 24.2622C191.158 24.0372 191.02 23.8335 190.846 23.6637ZM187.322 41.1193C187.093 41.7364 186.744 42.3016 186.294 42.7819C185.847 43.247 185.308 43.614 184.712 43.8595C184.063 44.1285 183.366 44.2637 182.663 44.2572C181.957 44.2688 181.256 44.1293 180.609 43.848C180.012 43.5879 179.474 43.2106 179.027 42.7387C178.573 42.2612 178.223 41.6952 177.998 41.0761C177.754 40.402 177.633 39.6896 177.641 38.9727C177.634 38.2502 177.755 37.5323 177.998 36.8519C178.221 36.227 178.572 35.6551 179.027 35.1721C179.475 34.702 180.013 34.3259 180.609 34.0656C181.257 33.7955 181.952 33.6565 182.654 33.6565C183.357 33.6565 184.052 33.7955 184.7 34.0656C185.301 34.3237 185.841 34.7068 186.282 35.1894C186.728 35.6856 187.077 36.2613 187.311 36.8865C187.562 37.5532 187.689 38.2602 187.685 38.9727C187.696 39.7044 187.573 40.4319 187.322 41.1193Z" fill="#4A2564"/>
<path d="M129.102 34.351C128.723 33.5053 128.16 32.7551 127.453 32.1554C126.709 31.5376 125.851 31.0725 124.926 30.7867C123.893 30.4617 122.814 30.3012 121.731 30.3113C120.656 30.3009 119.586 30.4613 118.561 30.7867C117.639 31.0731 116.781 31.5382 116.037 32.1554C115.33 32.7577 114.763 33.507 114.375 34.351C113.961 35.2674 113.755 36.2644 113.773 37.2699V45.2946C113.773 45.7875 113.968 46.2602 114.317 46.6088C114.665 46.9573 115.138 47.1531 115.631 47.1531C116.124 47.1531 116.597 46.9573 116.945 46.6088C117.294 46.2602 117.49 45.7875 117.49 45.2946V38.2063C117.49 36.7272 117.843 35.6015 118.55 34.8293C119.257 34.0571 120.313 33.6729 121.719 33.6768C123.108 33.6768 124.165 34.0609 124.889 34.8293C125.613 35.5977 125.973 36.7234 125.97 38.2063V45.2946C125.97 45.7875 126.165 46.2602 126.514 46.6088C126.862 46.9573 127.335 47.1531 127.828 47.1531C128.321 47.1531 128.794 46.9573 129.142 46.6088C129.491 46.2602 129.687 45.7875 129.687 45.2946V37.2699C129.703 36.2663 129.503 35.2709 129.102 34.351Z" fill="#4A2564"/>
<path d="M148.664 38.9179C147.665 38.1688 146.262 37.6741 144.457 37.434L141.132 37.0104C140.412 36.9545 139.712 36.7484 139.077 36.4053C138.851 36.2773 138.664 36.0894 138.537 35.8622C138.411 35.635 138.349 35.3772 138.36 35.1173C138.36 33.7919 139.621 33.1292 142.143 33.1292C142.952 33.1208 143.76 33.1913 144.555 33.3395C145.164 33.4587 145.764 33.6224 146.35 33.8294C146.43 33.8611 146.494 33.8927 146.572 33.9216C146.606 33.9389 146.642 33.9534 146.678 33.9648C146.842 34.0255 147.016 34.0567 147.191 34.057C147.48 34.0554 147.762 33.9686 148.001 33.8075C148.241 33.6464 148.428 33.4182 148.538 33.1515C148.649 32.8847 148.678 32.5913 148.622 32.308C148.567 32.0246 148.429 31.764 148.226 31.5588C148.093 31.4234 147.934 31.3165 147.759 31.2447C147.641 31.1871 147.517 31.1324 147.381 31.0776C146.123 30.5743 144.361 30.3227 142.094 30.3227C140.934 30.3002 139.776 30.4379 138.654 30.7318C137.818 30.9494 137.034 31.3315 136.348 31.8556C135.793 32.2939 135.352 32.8591 135.06 33.5038C134.789 34.1262 134.65 34.7985 134.654 35.4775C134.634 36.1931 134.784 36.9032 135.092 37.5493C135.384 38.1173 135.803 38.6103 136.317 38.99C136.885 39.4109 137.521 39.7307 138.198 39.9351C138.979 40.1719 139.783 40.3284 140.596 40.4019L143.137 40.69C144.313 40.8197 145.128 41.0444 145.583 41.3585C145.807 41.5109 145.988 41.7186 146.108 41.9614C146.228 42.2042 146.284 42.4739 146.269 42.7444C146.279 43.0777 146.181 43.4052 145.989 43.6779C145.798 43.9507 145.523 44.1539 145.206 44.2572C144.318 44.5799 143.376 44.7296 142.431 44.698C141.623 44.704 140.816 44.6385 140.019 44.5021C139.352 44.3894 138.692 44.2315 138.046 44.0296C137.642 43.8999 137.302 43.776 136.988 43.6521L136.939 43.6319C136.767 43.5666 136.584 43.5334 136.4 43.534C136.018 43.534 135.652 43.6857 135.382 43.9559C135.111 44.2261 134.96 44.5926 134.96 44.9747C134.955 45.1667 134.99 45.3577 135.062 45.5357C135.135 45.7137 135.243 45.8749 135.38 46.0091C135.511 46.1412 135.665 46.2468 135.836 46.3203H135.864C136.181 46.4471 136.541 46.5796 136.951 46.7122C137.768 46.9674 138.602 47.1685 139.446 47.3144C140.501 47.4965 141.571 47.5842 142.641 47.5766C145.075 47.5766 146.94 47.0867 148.234 46.1071C148.842 45.6648 149.333 45.0822 149.667 44.4089C150.001 43.7355 150.167 42.9915 150.15 42.2402C150.15 40.7745 149.655 39.6671 148.664 38.9179Z" fill="#4A2564"/>
<path d="M87.9469 38.918C86.948 38.1688 85.5457 37.6742 83.7401 37.4341L80.412 37.0105C79.6926 36.9539 78.9928 36.7478 78.3576 36.4054C78.1311 36.2774 77.9444 36.0895 77.8178 35.8622C77.6912 35.635 77.6297 35.3773 77.6401 35.1174C77.6401 33.7919 78.9012 33.1292 81.4234 33.1292C82.2332 33.1209 83.0419 33.1913 83.838 33.3396C84.4466 33.4587 85.0457 33.6224 85.6303 33.8294C85.7138 33.8611 85.7772 33.8928 85.855 33.9216C85.8885 33.9385 85.9232 33.9529 85.9587 33.9648C86.1229 34.0255 86.2966 34.0567 86.4716 34.057C86.7606 34.056 87.0428 33.9696 87.2829 33.8088C87.5229 33.6479 87.7101 33.4197 87.8209 33.1528C87.9317 32.886 87.9612 32.5923 87.9057 32.3087C87.8502 32.0251 87.7122 31.7643 87.5089 31.5589C87.3755 31.4245 87.2169 31.3178 87.0422 31.2448C86.9211 31.1871 86.8001 31.1324 86.6647 31.0777C85.4142 30.5763 83.6584 30.3256 81.3975 30.3256C80.2373 30.3031 79.0796 30.4408 77.9571 30.7348C77.1214 30.9517 76.3376 31.3338 75.6519 31.8585C75.0968 32.2968 74.655 32.862 74.3639 33.5067C74.0901 34.1285 73.9506 34.8011 73.9548 35.4805C73.9354 36.1962 74.0865 36.9063 74.3956 37.5522C74.6867 38.1208 75.106 38.614 75.6202 38.9929C76.1858 39.4123 76.8193 39.731 77.4932 39.9351C78.2741 40.1737 79.0774 40.332 79.8905 40.4077L82.4348 40.6958C83.6104 40.8255 84.4258 41.0502 84.8811 41.3643C85.1047 41.5171 85.2852 41.7249 85.4053 41.9676C85.5253 42.2103 85.581 42.4798 85.5669 42.7503C85.5763 43.0857 85.4762 43.415 85.2817 43.6885C85.0873 43.9619 84.8091 44.1646 84.4892 44.2659C83.6019 44.5884 82.6609 44.7381 81.7173 44.7067C80.9092 44.7129 80.1021 44.6473 79.3056 44.5108C78.6377 44.3981 77.9783 44.2402 77.3318 44.0383C76.9284 43.9086 76.5855 43.7847 76.2743 43.6608L76.2225 43.6406C76.0514 43.575 75.8697 43.5418 75.6865 43.5427C75.3512 43.544 75.0265 43.6607 74.7671 43.8731C74.5076 44.0855 74.3291 44.3807 74.2615 44.7091C74.1939 45.0375 74.2414 45.3792 74.3959 45.6768C74.5505 45.9744 74.8027 46.2098 75.1102 46.3434H75.139C75.456 46.4702 75.8162 46.6027 76.2253 46.7353C77.043 46.9905 77.8766 47.1917 78.7206 47.3375C79.7759 47.5196 80.8453 47.6073 81.9161 47.5997C84.35 47.5997 86.2142 47.1098 87.5089 46.1302C88.124 45.6882 88.622 45.103 88.9599 44.4252C89.2978 43.7474 89.4654 42.9974 89.4481 42.2403C89.4481 40.7746 88.9477 39.6672 87.9469 38.918Z" fill="#4A2564"/>
<path d="M108.747 33.6506C108.433 32.9845 107.971 32.3991 107.396 31.9391C106.739 31.4182 105.993 31.02 105.194 30.7634C104.224 30.4545 103.21 30.3056 102.192 30.3226C100.983 30.3098 99.7823 30.5259 98.6536 30.9594C97.6081 31.3637 96.6546 31.9741 95.85 32.7545C95.0452 33.5398 94.4124 34.4837 93.9915 35.5264C93.5341 36.6604 93.3069 37.8739 93.323 39.0965C93.299 40.3426 93.5314 41.5803 94.0059 42.7328C94.4338 43.7475 95.0733 44.6591 95.8817 45.4068C96.6824 46.141 97.6261 46.7021 98.6536 47.055C99.7502 47.4318 100.903 47.6198 102.062 47.6111C102.866 47.6161 103.668 47.5506 104.46 47.4151C105.11 47.3027 105.753 47.1496 106.384 46.957C106.655 46.8734 106.903 46.7841 107.131 46.6948C107.312 46.6188 107.476 46.5082 107.615 46.3692C107.757 46.2306 107.869 46.0641 107.944 45.8802C108.019 45.6962 108.055 45.4987 108.05 45.3002C108.05 45.1256 108.021 44.9522 107.963 44.7873C107.917 44.6545 107.851 44.5292 107.767 44.4156C107.721 44.3509 107.67 44.2893 107.615 44.2312C107.475 44.0891 107.308 43.977 107.124 43.9017C106.94 43.8264 106.742 43.7895 106.543 43.7932C106.346 43.7924 106.15 43.8296 105.967 43.9027C105.857 43.9459 105.75 43.9863 105.629 44.0266C105.209 44.168 104.778 44.2778 104.341 44.3551C103.825 44.4448 103.301 44.4882 102.777 44.4847C101.102 44.4847 99.8138 44.1419 98.9129 43.4561C98.4782 43.138 98.1113 42.7364 97.8337 42.2748C97.5561 41.8132 97.3735 41.3008 97.2964 40.7677C97.7315 40.7879 98.1407 40.8052 98.521 40.8167C98.9014 40.8282 99.3077 40.8167 99.7428 40.8167C101.296 40.8444 102.848 40.719 104.376 40.4421C105.396 40.2647 106.378 39.9118 107.278 39.399C107.926 39.0266 108.448 38.47 108.779 37.7999C109.068 37.148 109.213 36.4412 109.202 35.7281C109.206 35.0105 109.051 34.301 108.747 33.6506ZM105.39 36.6185C105.214 36.9704 104.929 37.2563 104.578 37.4339C104.035 37.7145 103.452 37.909 102.849 38.0102C101.891 38.1807 100.918 38.257 99.9445 38.2378H98.5758C98.1176 38.2378 97.6393 38.2378 97.1351 38.2061C97.1572 37.5703 97.2837 36.9424 97.5097 36.3476C97.7314 35.7603 98.0585 35.2183 98.4749 34.7484C98.9015 34.2706 99.4238 33.8877 100.008 33.6247C100.675 33.33 101.399 33.1854 102.129 33.2011C102.986 33.1708 103.836 33.3836 104.578 33.8149C104.897 34.005 105.158 34.2786 105.333 34.606C105.508 34.9335 105.591 35.3025 105.572 35.6734C105.576 35.9975 105.515 36.3191 105.39 36.6185Z" fill="#4A2564"/>
<path d="M220.345 37.2697C220.375 36.16 220.158 35.0575 219.708 34.0425C219.312 33.1834 218.699 32.4419 217.931 31.8901C217.113 31.3252 216.193 30.9259 215.222 30.7144C214.072 30.4528 212.895 30.3261 211.715 30.337C210.83 30.3233 209.946 30.3888 209.073 30.5329C208.494 30.6261 207.934 30.8079 207.41 31.0717C207.333 31.115 207.266 31.1582 207.197 31.2043L207.128 31.2475C207.056 31.2981 206.988 31.354 206.924 31.4146C206.717 31.6203 206.577 31.8826 206.52 32.1682C206.463 32.4539 206.493 32.7499 206.605 33.0188C206.716 33.2877 206.905 33.5174 207.148 33.6786C207.39 33.8398 207.675 33.9253 207.967 33.9243C208.155 33.9257 208.341 33.8914 208.517 33.8235H208.546L208.667 33.7774C209.628 33.4628 210.638 33.3194 211.649 33.3538C212.325 33.3495 213 33.4035 213.666 33.5152C214.222 33.6007 214.755 33.7966 215.234 34.0915C215.676 34.383 216.03 34.7894 216.259 35.2671C216.529 35.8596 216.657 36.5067 216.634 37.1573C216.265 37.115 215.711 37.066 214.971 37.0103C214.232 36.9546 213.451 36.922 212.629 36.9124C211.402 36.8909 210.176 37.0059 208.975 37.2553C208.104 37.428 207.277 37.7771 206.546 38.281C205.949 38.7093 205.486 39.2977 205.209 39.9782C204.924 40.7276 204.785 41.5248 204.8 42.3266C204.8 42.9993 204.916 43.6669 205.143 44.3003C205.398 44.9747 205.839 45.5625 206.416 45.9946C207.178 46.5518 208.043 46.9515 208.961 47.1702C210.322 47.4965 211.719 47.6447 213.119 47.6111C213.966 47.6111 214.781 47.589 215.565 47.5448C216.346 47.5016 217.055 47.4526 217.686 47.3978C217.956 47.3748 218.213 47.3517 218.455 47.3258C218.959 47.3167 219.441 47.1193 219.806 46.7726C219.986 46.5954 220.128 46.3835 220.223 46.1496C220.318 45.9158 220.365 45.665 220.36 45.4125C220.36 45.4125 220.36 45.3953 220.36 45.3866L220.345 37.2697ZM216.663 44.6086C216.471 44.6528 216.079 44.7133 215.487 44.7902C214.697 44.8755 213.902 44.913 213.107 44.9025C212.359 44.9143 211.611 44.8544 210.874 44.7239C210.372 44.6399 209.89 44.4631 209.453 44.2024C209.132 44.004 208.877 43.714 208.722 43.3696C208.576 43.0294 208.503 42.6622 208.508 42.292C208.508 41.3315 208.845 40.6304 209.52 40.1885C210.194 39.7467 211.271 39.5249 212.75 39.5229C213.648 39.507 214.546 39.5503 215.438 39.6526C216.037 39.739 216.444 39.8053 216.663 39.8485V44.6086Z" fill="#4A2564"/>
<path d="M17.6553 38.8115C17.6553 38.8115 17.517 15.1176 29.0168 15.0542C29.0168 15.0542 52.5147 20.1399 45.6858 36.9529C45.6858 36.9529 38.8539 33.4175 34.6932 33.5903C34.6932 33.5903 30.5324 49.294 46.5329 50.5907C60.7181 51.7432 65.118 38.9671 65.118 38.9671C65.118 46.816 46.5329 62.733 30.2154 62.9231C28.7085 62.9404 17.6409 63.7876 17.6553 38.8057" fill="#4A2564"/>
<path fill-rule="evenodd" clip-rule="evenodd" d="M35.203 15.4432C33.1651 15.0566 31.0864 14.9298 29.0166 15.0657C33.7421 16.3163 38.2631 18.6416 41.6948 22.2001C48.4719 29.2452 48.3567 38.7567 39.4387 42.9665C38.6866 43.3209 38.5368 43.7012 39.1505 44.3467C42.4296 48.1703 49.1231 49.5332 55.0992 47.6805C59.2599 46.4011 64.2649 42.6409 65.1351 38.9815C65.1351 38.8432 65.1351 38.6933 65.1351 38.5666C64.9219 34.91 61.7812 31.3284 59.3233 28.8245C56.3353 25.8163 48.3048 17.9385 35.203 15.4432Z" fill="#EA5B0C"/>
</svg>
